solid OpenSCAD_Model
  facet normal 0.987692 -0.156408 0
    outer loop
      vertex 13.6941 -2.91076 14
      vertex 13.9233 -1.4634 0
      vertex 13.9233 -1.4634 14
    endloop
  endfacet
  facet normal 0.987692 -0.156408 0
    outer loop
      vertex 13.9233 -1.4634 0
      vertex 13.6941 -2.91076 14
      vertex 13.6941 -2.91076 0
    endloop
  endfacet
  facet normal 0.987692 0.156408 0
    outer loop
      vertex 13.9233 1.4634 14
      vertex 13.6941 2.91076 0
      vertex 13.6941 2.91076 14
    endloop
  endfacet
  facet normal 0.987692 0.156408 0
    outer loop
      vertex 13.6941 2.91076 0
      vertex 13.9233 1.4634 14
      vertex 13.9233 1.4634 0
    endloop
  endfacet
  facet normal 0.998629 0.0523403 0
    outer loop
      vertex 14 0 14
      vertex 13.9233 1.4634 0
      vertex 13.9233 1.4634 14
    endloop
  endfacet
  facet normal 0.998629 0.0523403 0
    outer loop
      vertex 13.9233 1.4634 0
      vertex 14 0 14
      vertex 14 0 0
    endloop
  endfacet
  facet normal 0.965922 0.258834 0
    outer loop
      vertex 13.6941 2.91076 14
      vertex 13.3148 4.32624 0
      vertex 13.3148 4.32624 14
    endloop
  endfacet
  facet normal 0.965922 0.258834 0
    outer loop
      vertex 13.3148 4.32624 0
      vertex 13.6941 2.91076 14
      vertex 13.6941 2.91076 0
    endloop
  endfacet
  facet normal 0.838644 0.54468 0
    outer loop
      vertex 12.1244 7 14
      vertex 11.3262 8.22899 0
      vertex 11.3262 8.22899 14
    endloop
  endfacet
  facet normal 0.838644 0.54468 0
    outer loop
      vertex 11.3262 8.22899 0
      vertex 12.1244 7 14
      vertex 12.1244 7 0
    endloop
  endfacet
  facet normal -0.156408 0.987692 0
    outer loop
      vertex -1.4634 13.9233 0
      vertex -2.91076 13.6941 14
      vertex -1.4634 13.9233 14
    endloop
  endfacet
  facet normal -0.156408 0.987692 0
    outer loop
      vertex -2.91076 13.6941 14
      vertex -1.4634 13.9233 0
      vertex -2.91076 13.6941 0
    endloop
  endfacet
  facet normal -0.965922 -0.258834 0
    outer loop
      vertex -13.3148 -4.32624 0
      vertex -13.6941 -2.91076 14
      vertex -13.6941 -2.91076 0
    endloop
  endfacet
  facet normal -0.965922 -0.258834 0
    outer loop
      vertex -13.6941 -2.91076 14
      vertex -13.3148 -4.32624 0
      vertex -13.3148 -4.32624 14
    endloop
  endfacet
  facet normal -0.453946 -0.891029 0
    outer loop
      vertex -7 -12.1244 0
      vertex -5.69431 -12.7896 14
      vertex -7 -12.1244 14
    endloop
  endfacet
  facet normal -0.453946 -0.891029 -0
    outer loop
      vertex -5.69431 -12.7896 14
      vertex -7 -12.1244 0
      vertex -5.69431 -12.7896 0
    endloop
  endfacet
  facet normal 0.998629 -0.0523403 0
    outer loop
      vertex 13.9233 -1.4634 14
      vertex 14 0 0
      vertex 14 0 14
    endloop
  endfacet
  facet normal 0.998629 -0.0523403 0
    outer loop
      vertex 14 0 0
      vertex 13.9233 -1.4634 14
      vertex 13.9233 -1.4634 0
    endloop
  endfacet
  facet normal 0.258834 -0.965922 0
    outer loop
      vertex 2.91076 -13.6941 0
      vertex 4.32624 -13.3148 14
      vertex 2.91076 -13.6941 14
    endloop
  endfacet
  facet normal 0.258834 -0.965922 0
    outer loop
      vertex 4.32624 -13.3148 14
      vertex 2.91076 -13.6941 0
      vertex 4.32624 -13.3148 0
    endloop
  endfacet
  facet normal -0.629314 -0.777151 0
    outer loop
      vertex -9.36783 -10.404 0
      vertex -8.22899 -11.3262 14
      vertex -9.36783 -10.404 14
    endloop
  endfacet
  facet normal -0.629314 -0.777151 -0
    outer loop
      vertex -8.22899 -11.3262 14
      vertex -9.36783 -10.404 0
      vertex -8.22899 -11.3262 0
    endloop
  endfacet
  facet normal -0.707107 -0.707107 0
    outer loop
      vertex -9.36783 -10.404 0
      vertex -10.404 -9.36783 14
      vertex -10.404 -9.36783 0
    endloop
  endfacet
  facet normal -0.707107 -0.707107 0
    outer loop
      vertex -10.404 -9.36783 14
      vertex -9.36783 -10.404 0
      vertex -9.36783 -10.404 14
    endloop
  endfacet
  facet normal -0.965922 0.258834 0
    outer loop
      vertex -13.6941 2.91076 0
      vertex -13.3148 4.32624 14
      vertex -13.3148 4.32624 0
    endloop
  endfacet
  facet normal -0.965922 0.258834 0
    outer loop
      vertex -13.3148 4.32624 14
      vertex -13.6941 2.91076 0
      vertex -13.6941 2.91076 14
    endloop
  endfacet
  facet normal -0.54468 -0.838644 0
    outer loop
      vertex -8.22899 -11.3262 0
      vertex -7 -12.1244 14
      vertex -8.22899 -11.3262 14
    endloop
  endfacet
  facet normal -0.54468 -0.838644 -0
    outer loop
      vertex -7 -12.1244 14
      vertex -8.22899 -11.3262 0
      vertex -7 -12.1244 0
    endloop
  endfacet
  facet normal 0.93357 -0.358396 0
    outer loop
      vertex 12.7896 -5.69431 14
      vertex 13.3148 -4.32624 0
      vertex 13.3148 -4.32624 14
    endloop
  endfacet
  facet normal 0.93357 -0.358396 0
    outer loop
      vertex 13.3148 -4.32624 0
      vertex 12.7896 -5.69431 14
      vertex 12.7896 -5.69431 0
    endloop
  endfacet
  facet normal 0.156408 0.987692 -0
    outer loop
      vertex 2.91076 13.6941 0
      vertex 1.4634 13.9233 14
      vertex 2.91076 13.6941 14
    endloop
  endfacet
  facet normal 0.156408 0.987692 0
    outer loop
      vertex 1.4634 13.9233 14
      vertex 2.91076 13.6941 0
      vertex 1.4634 13.9233 0
    endloop
  endfacet
  facet normal 0.54468 0.838644 -0
    outer loop
      vertex 8.22899 11.3262 0
      vertex 7 12.1244 14
      vertex 8.22899 11.3262 14
    endloop
  endfacet
  facet normal 0.54468 0.838644 0
    outer loop
      vertex 7 12.1244 14
      vertex 8.22899 11.3262 0
      vertex 7 12.1244 0
    endloop
  endfacet
  facet normal 0.358396 -0.93357 0
    outer loop
      vertex 4.32624 -13.3148 0
      vertex 5.69431 -12.7896 14
      vertex 4.32624 -13.3148 14
    endloop
  endfacet
  facet normal 0.358396 -0.93357 0
    outer loop
      vertex 5.69431 -12.7896 14
      vertex 4.32624 -13.3148 0
      vertex 5.69431 -12.7896 0
    endloop
  endfacet
  facet normal -0.258834 0.965922 0
    outer loop
      vertex -2.91076 13.6941 0
      vertex -4.32624 13.3148 14
      vertex -2.91076 13.6941 14
    endloop
  endfacet
  facet normal -0.258834 0.965922 0
    outer loop
      vertex -4.32624 13.3148 14
      vertex -2.91076 13.6941 0
      vertex -4.32624 13.3148 0
    endloop
  endfacet
  facet normal 0.0523403 0.998629 -0
    outer loop
      vertex 1.4634 13.9233 0
      vertex 0 14 14
      vertex 1.4634 13.9233 14
    endloop
  endfacet
  facet normal 0.0523403 0.998629 0
    outer loop
      vertex 0 14 14
      vertex 1.4634 13.9233 0
      vertex 0 14 0
    endloop
  endfacet
  facet normal 0.358396 0.93357 -0
    outer loop
      vertex 5.69431 12.7896 0
      vertex 4.32624 13.3148 14
      vertex 5.69431 12.7896 14
    endloop
  endfacet
  facet normal 0.358396 0.93357 0
    outer loop
      vertex 4.32624 13.3148 14
      vertex 5.69431 12.7896 0
      vertex 4.32624 13.3148 0
    endloop
  endfacet
  facet normal 0.965922 -0.258834 0
    outer loop
      vertex 13.3148 -4.32624 14
      vertex 13.6941 -2.91076 0
      vertex 13.6941 -2.91076 14
    endloop
  endfacet
  facet normal 0.965922 -0.258834 0
    outer loop
      vertex 13.6941 -2.91076 0
      vertex 13.3148 -4.32624 14
      vertex 13.3148 -4.32624 0
    endloop
  endfacet
  facet normal 0.453946 0.891029 -0
    outer loop
      vertex 7 12.1244 0
      vertex 5.69431 12.7896 14
      vertex 7 12.1244 14
    endloop
  endfacet
  facet normal 0.453946 0.891029 0
    outer loop
      vertex 5.69431 12.7896 14
      vertex 7 12.1244 0
      vertex 5.69431 12.7896 0
    endloop
  endfacet
  facet normal -0.453946 0.891029 0
    outer loop
      vertex -5.69431 12.7896 0
      vertex -7 12.1244 14
      vertex -5.69431 12.7896 14
    endloop
  endfacet
  facet normal -0.453946 0.891029 0
    outer loop
      vertex -7 12.1244 14
      vertex -5.69431 12.7896 0
      vertex -7 12.1244 0
    endloop
  endfacet
  facet normal 0.156408 -0.987692 0
    outer loop
      vertex 1.4634 -13.9233 0
      vertex 2.91076 -13.6941 14
      vertex 1.4634 -13.9233 14
    endloop
  endfacet
  facet normal 0.156408 -0.987692 0
    outer loop
      vertex 2.91076 -13.6941 14
      vertex 1.4634 -13.9233 0
      vertex 2.91076 -13.6941 0
    endloop
  endfacet
  facet normal -0.258834 -0.965922 0
    outer loop
      vertex -4.32624 -13.3148 0
      vertex -2.91076 -13.6941 14
      vertex -4.32624 -13.3148 14
    endloop
  endfacet
  facet normal -0.258834 -0.965922 -0
    outer loop
      vertex -2.91076 -13.6941 14
      vertex -4.32624 -13.3148 0
      vertex -2.91076 -13.6941 0
    endloop
  endfacet
  facet normal 0.777151 -0.629314 0
    outer loop
      vertex 10.404 -9.36783 14
      vertex 11.3262 -8.22899 0
      vertex 11.3262 -8.22899 14
    endloop
  endfacet
  facet normal 0.777151 -0.629314 0
    outer loop
      vertex 11.3262 -8.22899 0
      vertex 10.404 -9.36783 14
      vertex 10.404 -9.36783 0
    endloop
  endfacet
  facet normal 0.629314 0.777151 -0
    outer loop
      vertex 9.36783 10.404 0
      vertex 8.22899 11.3262 14
      vertex 9.36783 10.404 14
    endloop
  endfacet
  facet normal 0.629314 0.777151 0
    outer loop
      vertex 8.22899 11.3262 14
      vertex 9.36783 10.404 0
      vertex 8.22899 11.3262 0
    endloop
  endfacet
  facet normal 0.891029 -0.453946 0
    outer loop
      vertex 12.1244 -7 14
      vertex 12.7896 -5.69431 0
      vertex 12.7896 -5.69431 14
    endloop
  endfacet
  facet normal 0.891029 -0.453946 0
    outer loop
      vertex 12.7896 -5.69431 0
      vertex 12.1244 -7 14
      vertex 12.1244 -7 0
    endloop
  endfacet
  facet normal -0.707107 0.707107 0
    outer loop
      vertex -10.404 9.36783 0
      vertex -9.36783 10.404 14
      vertex -9.36783 10.404 0
    endloop
  endfacet
  facet normal -0.707107 0.707107 0
    outer loop
      vertex -9.36783 10.404 14
      vertex -10.404 9.36783 0
      vertex -10.404 9.36783 14
    endloop
  endfacet
  facet normal 0.0523403 -0.998629 0
    outer loop
      vertex 0 -14 0
      vertex 1.4634 -13.9233 14
      vertex 0 -14 14
    endloop
  endfacet
  facet normal 0.0523403 -0.998629 0
    outer loop
      vertex 1.4634 -13.9233 14
      vertex 0 -14 0
      vertex 1.4634 -13.9233 0
    endloop
  endfacet
  facet normal -0.358396 0.93357 0
    outer loop
      vertex -4.32624 13.3148 0
      vertex -5.69431 12.7896 14
      vertex -4.32624 13.3148 14
    endloop
  endfacet
  facet normal -0.358396 0.93357 0
    outer loop
      vertex -5.69431 12.7896 14
      vertex -4.32624 13.3148 0
      vertex -5.69431 12.7896 0
    endloop
  endfacet
  facet normal -0.0523403 0.998629 0
    outer loop
      vertex 0 14 0
      vertex -1.4634 13.9233 14
      vertex 0 14 14
    endloop
  endfacet
  facet normal -0.0523403 0.998629 0
    outer loop
      vertex -1.4634 13.9233 14
      vertex 0 14 0
      vertex -1.4634 13.9233 0
    endloop
  endfacet
  facet normal 0.453946 -0.891029 0
    outer loop
      vertex 5.69431 -12.7896 0
      vertex 7 -12.1244 14
      vertex 5.69431 -12.7896 14
    endloop
  endfacet
  facet normal 0.453946 -0.891029 0
    outer loop
      vertex 7 -12.1244 14
      vertex 5.69431 -12.7896 0
      vertex 7 -12.1244 0
    endloop
  endfacet
  facet normal -0.93357 0.358396 0
    outer loop
      vertex -13.3148 4.32624 0
      vertex -12.7896 5.69431 14
      vertex -12.7896 5.69431 0
    endloop
  endfacet
  facet normal -0.93357 0.358396 0
    outer loop
      vertex -12.7896 5.69431 14
      vertex -13.3148 4.32624 0
      vertex -13.3148 4.32624 14
    endloop
  endfacet
  facet normal -0.891029 0.453946 0
    outer loop
      vertex -12.7896 5.69431 0
      vertex -12.1244 7 14
      vertex -12.1244 7 0
    endloop
  endfacet
  facet normal -0.891029 0.453946 0
    outer loop
      vertex -12.1244 7 14
      vertex -12.7896 5.69431 0
      vertex -12.7896 5.69431 14
    endloop
  endfacet
  facet normal 0.777151 0.629314 0
    outer loop
      vertex 11.3262 8.22899 14
      vertex 10.404 9.36783 0
      vertex 10.404 9.36783 14
    endloop
  endfacet
  facet normal 0.777151 0.629314 0
    outer loop
      vertex 10.404 9.36783 0
      vertex 11.3262 8.22899 14
      vertex 11.3262 8.22899 0
    endloop
  endfacet
  facet normal 0.258834 0.965922 -0
    outer loop
      vertex 4.32624 13.3148 0
      vertex 2.91076 13.6941 14
      vertex 4.32624 13.3148 14
    endloop
  endfacet
  facet normal 0.258834 0.965922 0
    outer loop
      vertex 2.91076 13.6941 14
      vertex 4.32624 13.3148 0
      vertex 2.91076 13.6941 0
    endloop
  endfacet
  facet normal 0.93357 0.358396 0
    outer loop
      vertex 13.3148 4.32624 14
      vertex 12.7896 5.69431 0
      vertex 12.7896 5.69431 14
    endloop
  endfacet
  facet normal 0.93357 0.358396 0
    outer loop
      vertex 12.7896 5.69431 0
      vertex 13.3148 4.32624 14
      vertex 13.3148 4.32624 0
    endloop
  endfacet
  facet normal 0.838644 -0.54468 0
    outer loop
      vertex 11.3262 -8.22899 14
      vertex 12.1244 -7 0
      vertex 12.1244 -7 14
    endloop
  endfacet
  facet normal 0.838644 -0.54468 0
    outer loop
      vertex 12.1244 -7 0
      vertex 11.3262 -8.22899 14
      vertex 11.3262 -8.22899 0
    endloop
  endfacet
  facet normal -0.998629 -0.0523403 0
    outer loop
      vertex -13.9233 -1.4634 0
      vertex -14 0 14
      vertex -14 0 0
    endloop
  endfacet
  facet normal -0.998629 -0.0523403 0
    outer loop
      vertex -14 0 14
      vertex -13.9233 -1.4634 0
      vertex -13.9233 -1.4634 14
    endloop
  endfacet
  facet normal 0 0 1
    outer loop
      vertex 2.5 0 14
      vertex 14 0 14
      vertex 13.9233 1.4634 14
    endloop
  endfacet
  facet normal 0 0 1
    outer loop
      vertex 2.4863 0.261321 14
      vertex 13.9233 1.4634 14
      vertex 13.6941 2.91076 14
    endloop
  endfacet
  facet normal 0 0 1
    outer loop
      vertex 14 0 14
      vertex 2.5 0 14
      vertex 13.9233 -1.4634 14
    endloop
  endfacet
  facet normal 0 0 1
    outer loop
      vertex 2.44537 0.519779 14
      vertex 13.6941 2.91076 14
      vertex 13.3148 4.32624 14
    endloop
  endfacet
  facet normal -0 0 1
    outer loop
      vertex 2.4863 -0.261321 14
      vertex 13.9233 -1.4634 14
      vertex 2.5 0 14
    endloop
  endfacet
  facet normal 0 0 1
    outer loop
      vertex 2.37764 0.772542 14
      vertex 13.3148 4.32624 14
      vertex 12.7896 5.69431 14
    endloop
  endfacet
  facet normal 0 0 1
    outer loop
      vertex 13.9233 -1.4634 14
      vertex 2.4863 -0.261321 14
      vertex 13.6941 -2.91076 14
    endloop
  endfacet
  facet normal 0 0 1
    outer loop
      vertex 2.28386 1.01684 14
      vertex 12.7896 5.69431 14
      vertex 12.1244 7 14
    endloop
  endfacet
  facet normal -0 0 1
    outer loop
      vertex 2.44537 -0.519779 14
      vertex 13.6941 -2.91076 14
      vertex 2.4863 -0.261321 14
    endloop
  endfacet
  facet normal 0 0 1
    outer loop
      vertex 2.16506 1.25 14
      vertex 12.1244 7 14
      vertex 11.3262 8.22899 14
    endloop
  endfacet
  facet normal 0 0 1
    outer loop
      vertex 13.6941 -2.91076 14
      vertex 2.44537 -0.519779 14
      vertex 13.3148 -4.32624 14
    endloop
  endfacet
  facet normal 0 0 1
    outer loop
      vertex 2.02254 1.46946 14
      vertex 11.3262 8.22899 14
      vertex 10.404 9.36783 14
    endloop
  endfacet
  facet normal -0 0 1
    outer loop
      vertex 2.37764 -0.772542 14
      vertex 13.3148 -4.32624 14
      vertex 2.44537 -0.519779 14
    endloop
  endfacet
  facet normal 0 0 1
    outer loop
      vertex 1.85786 1.67283 14
      vertex 10.404 9.36783 14
      vertex 9.36783 10.404 14
    endloop
  endfacet
  facet normal 0 0 1
    outer loop
      vertex 13.3148 -4.32624 14
      vertex 2.37764 -0.772542 14
      vertex 12.7896 -5.69431 14
    endloop
  endfacet
  facet normal 0 0 1
    outer loop
      vertex 1.67283 1.85786 14
      vertex 9.36783 10.404 14
      vertex 8.22899 11.3262 14
    endloop
  endfacet
  facet normal -0 0 1
    outer loop
      vertex 2.28386 -1.01684 14
      vertex 12.7896 -5.69431 14
      vertex 2.37764 -0.772542 14
    endloop
  endfacet
  facet normal 0 0 1
    outer loop
      vertex 1.46946 2.02254 14
      vertex 8.22899 11.3262 14
      vertex 7 12.1244 14
    endloop
  endfacet
  facet normal 0 0 1
    outer loop
      vertex 12.7896 -5.69431 14
      vertex 2.28386 -1.01684 14
      vertex 12.1244 -7 14
    endloop
  endfacet
  facet normal 0 0 1
    outer loop
      vertex 1.25 2.16506 14
      vertex 7 12.1244 14
      vertex 5.69431 12.7896 14
    endloop
  endfacet
  facet normal -0 0 1
    outer loop
      vertex 2.16506 -1.25 14
      vertex 12.1244 -7 14
      vertex 2.28386 -1.01684 14
    endloop
  endfacet
  facet normal 0 0 1
    outer loop
      vertex 1.01684 2.28386 14
      vertex 5.69431 12.7896 14
      vertex 4.32624 13.3148 14
    endloop
  endfacet
  facet normal 0 0 1
    outer loop
      vertex 12.1244 -7 14
      vertex 2.16506 -1.25 14
      vertex 11.3262 -8.22899 14
    endloop
  endfacet
  facet normal 0 0 1
    outer loop
      vertex 0.772542 2.37764 14
      vertex 4.32624 13.3148 14
      vertex 2.91076 13.6941 14
    endloop
  endfacet
  facet normal -0 0 1
    outer loop
      vertex 2.02254 -1.46946 14
      vertex 11.3262 -8.22899 14
      vertex 2.16506 -1.25 14
    endloop
  endfacet
  facet normal 0 0 1
    outer loop
      vertex 11.3262 -8.22899 14
      vertex 2.02254 -1.46946 14
      vertex 10.404 -9.36783 14
    endloop
  endfacet
  facet normal 0 0 1
    outer loop
      vertex 13.9233 1.4634 14
      vertex 2.4863 0.261321 14
      vertex 2.5 0 14
    endloop
  endfacet
  facet normal 0 0 1
    outer loop
      vertex 13.6941 2.91076 14
      vertex 2.44537 0.519779 14
      vertex 2.4863 0.261321 14
    endloop
  endfacet
  facet normal 0 0 1
    outer loop
      vertex 13.3148 4.32624 14
      vertex 2.37764 0.772542 14
      vertex 2.44537 0.519779 14
    endloop
  endfacet
  facet normal 0 0 1
    outer loop
      vertex 12.7896 5.69431 14
      vertex 2.28386 1.01684 14
      vertex 2.37764 0.772542 14
    endloop
  endfacet
  facet normal 0 0 1
    outer loop
      vertex 12.1244 7 14
      vertex 2.16506 1.25 14
      vertex 2.28386 1.01684 14
    endloop
  endfacet
  facet normal 0 0 1
    outer loop
      vertex 11.3262 8.22899 14
      vertex 2.02254 1.46946 14
      vertex 2.16506 1.25 14
    endloop
  endfacet
  facet normal 0 0 1
    outer loop
      vertex 10.404 9.36783 14
      vertex 1.85786 1.67283 14
      vertex 2.02254 1.46946 14
    endloop
  endfacet
  facet normal 0 0 1
    outer loop
      vertex 9.36783 10.404 14
      vertex 1.67283 1.85786 14
      vertex 1.85786 1.67283 14
    endloop
  endfacet
  facet normal 0 0 1
    outer loop
      vertex 8.22899 11.3262 14
      vertex 1.46946 2.02254 14
      vertex 1.67283 1.85786 14
    endloop
  endfacet
  facet normal 0 0 1
    outer loop
      vertex 0.519779 2.44537 14
      vertex 2.91076 13.6941 14
      vertex 1.4634 13.9233 14
    endloop
  endfacet
  facet normal 0 0 1
    outer loop
      vertex 7 12.1244 14
      vertex 1.25 2.16506 14
      vertex 1.46946 2.02254 14
    endloop
  endfacet
  facet normal 0 0 1
    outer loop
      vertex 5.69431 12.7896 14
      vertex 1.01684 2.28386 14
      vertex 1.25 2.16506 14
    endloop
  endfacet
  facet normal 0 0 1
    outer loop
      vertex 4.32624 13.3148 14
      vertex 0.772542 2.37764 14
      vertex 1.01684 2.28386 14
    endloop
  endfacet
  facet normal 0 0 1
    outer loop
      vertex 2.91076 13.6941 14
      vertex 0.519779 2.44537 14
      vertex 0.772542 2.37764 14
    endloop
  endfacet
  facet normal 0 0 1
    outer loop
      vertex 1.4634 13.9233 14
      vertex 0.261321 2.4863 14
      vertex 0.519779 2.44537 14
    endloop
  endfacet
  facet normal 0 0 1
    outer loop
      vertex 0 14 14
      vertex 0.261321 2.4863 14
      vertex 1.4634 13.9233 14
    endloop
  endfacet
  facet normal 0 0 1
    outer loop
      vertex 0 14 14
      vertex 0 2.5 14
      vertex 0.261321 2.4863 14
    endloop
  endfacet
  facet normal 0 0 1
    outer loop
      vertex 0 14 14
      vertex -0.261321 2.4863 14
      vertex 0 2.5 14
    endloop
  endfacet
  facet normal -0 0 1
    outer loop
      vertex -1.4634 13.9233 14
      vertex -0.261321 2.4863 14
      vertex 0 14 14
    endloop
  endfacet
  facet normal 0 0 1
    outer loop
      vertex -0.261321 2.4863 14
      vertex -1.4634 13.9233 14
      vertex -0.519779 2.44537 14
    endloop
  endfacet
  facet normal -0 0 1
    outer loop
      vertex -2.91076 13.6941 14
      vertex -0.519779 2.44537 14
      vertex -1.4634 13.9233 14
    endloop
  endfacet
  facet normal 0 0 1
    outer loop
      vertex -0.519779 2.44537 14
      vertex -2.91076 13.6941 14
      vertex -0.772542 2.37764 14
    endloop
  endfacet
  facet normal -0 0 1
    outer loop
      vertex -4.32624 13.3148 14
      vertex -0.772542 2.37764 14
      vertex -2.91076 13.6941 14
    endloop
  endfacet
  facet normal 0 0 1
    outer loop
      vertex -0.772542 2.37764 14
      vertex -4.32624 13.3148 14
      vertex -1.01684 2.28386 14
    endloop
  endfacet
  facet normal -0 0 1
    outer loop
      vertex -5.69431 12.7896 14
      vertex -1.01684 2.28386 14
      vertex -4.32624 13.3148 14
    endloop
  endfacet
  facet normal 0 0 1
    outer loop
      vertex -1.01684 2.28386 14
      vertex -5.69431 12.7896 14
      vertex -1.25 2.16506 14
    endloop
  endfacet
  facet normal -0 0 1
    outer loop
      vertex -7 12.1244 14
      vertex -1.25 2.16506 14
      vertex -5.69431 12.7896 14
    endloop
  endfacet
  facet normal 0 0 1
    outer loop
      vertex -1.25 2.16506 14
      vertex -7 12.1244 14
      vertex -1.46946 2.02254 14
    endloop
  endfacet
  facet normal -0 0 1
    outer loop
      vertex -8.22899 11.3262 14
      vertex -1.46946 2.02254 14
      vertex -7 12.1244 14
    endloop
  endfacet
  facet normal 0 0 1
    outer loop
      vertex -1.46946 2.02254 14
      vertex -8.22899 11.3262 14
      vertex -1.67283 1.85786 14
    endloop
  endfacet
  facet normal -0 0 1
    outer loop
      vertex -9.36783 10.404 14
      vertex -1.67283 1.85786 14
      vertex -8.22899 11.3262 14
    endloop
  endfacet
  facet normal 0 0 1
    outer loop
      vertex -1.67283 1.85786 14
      vertex -9.36783 10.404 14
      vertex -1.85786 1.67283 14
    endloop
  endfacet
  facet normal 0 0 1
    outer loop
      vertex -1.85786 1.67283 14
      vertex -10.404 9.36783 14
      vertex -2.02254 1.46946 14
    endloop
  endfacet
  facet normal -0 0 1
    outer loop
      vertex -10.404 9.36783 14
      vertex -1.85786 1.67283 14
      vertex -9.36783 10.404 14
    endloop
  endfacet
  facet normal -0 0 1
    outer loop
      vertex 1.85786 -1.67283 14
      vertex 10.404 -9.36783 14
      vertex 2.02254 -1.46946 14
    endloop
  endfacet
  facet normal 0 0 1
    outer loop
      vertex 10.404 -9.36783 14
      vertex 1.85786 -1.67283 14
      vertex 9.36783 -10.404 14
    endloop
  endfacet
  facet normal -0 0 1
    outer loop
      vertex 1.67283 -1.85786 14
      vertex 9.36783 -10.404 14
      vertex 1.85786 -1.67283 14
    endloop
  endfacet
  facet normal 0 0 1
    outer loop
      vertex 9.36783 -10.404 14
      vertex 1.67283 -1.85786 14
      vertex 8.22899 -11.3262 14
    endloop
  endfacet
  facet normal -0 0 1
    outer loop
      vertex 1.46946 -2.02254 14
      vertex 8.22899 -11.3262 14
      vertex 1.67283 -1.85786 14
    endloop
  endfacet
  facet normal 0 0 1
    outer loop
      vertex 8.22899 -11.3262 14
      vertex 1.46946 -2.02254 14
      vertex 7 -12.1244 14
    endloop
  endfacet
  facet normal -0 0 1
    outer loop
      vertex 1.25 -2.16506 14
      vertex 7 -12.1244 14
      vertex 1.46946 -2.02254 14
    endloop
  endfacet
  facet normal 0 0 1
    outer loop
      vertex 7 -12.1244 14
      vertex 1.25 -2.16506 14
      vertex 5.69431 -12.7896 14
    endloop
  endfacet
  facet normal -0 0 1
    outer loop
      vertex 1.01684 -2.28386 14
      vertex 5.69431 -12.7896 14
      vertex 1.25 -2.16506 14
    endloop
  endfacet
  facet normal 0 0 1
    outer loop
      vertex 5.69431 -12.7896 14
      vertex 1.01684 -2.28386 14
      vertex 4.32624 -13.3148 14
    endloop
  endfacet
  facet normal -0 0 1
    outer loop
      vertex 0.772542 -2.37764 14
      vertex 4.32624 -13.3148 14
      vertex 1.01684 -2.28386 14
    endloop
  endfacet
  facet normal 0 0 1
    outer loop
      vertex 4.32624 -13.3148 14
      vertex 0.772542 -2.37764 14
      vertex 2.91076 -13.6941 14
    endloop
  endfacet
  facet normal -0 0 1
    outer loop
      vertex 0.519779 -2.44537 14
      vertex 2.91076 -13.6941 14
      vertex 0.772542 -2.37764 14
    endloop
  endfacet
  facet normal 0 0 1
    outer loop
      vertex 2.91076 -13.6941 14
      vertex 0.519779 -2.44537 14
      vertex 1.4634 -13.9233 14
    endloop
  endfacet
  facet normal -0 0 1
    outer loop
      vertex 0.261321 -2.4863 14
      vertex 1.4634 -13.9233 14
      vertex 0.519779 -2.44537 14
    endloop
  endfacet
  facet normal -0 0 1
    outer loop
      vertex 0 -2.5 14
      vertex 1.4634 -13.9233 14
      vertex 0.261321 -2.4863 14
    endloop
  endfacet
  facet normal 0 0 1
    outer loop
      vertex 0 -2.5 14
      vertex 0 -14 14
      vertex 1.4634 -13.9233 14
    endloop
  endfacet
  facet normal 0 0 1
    outer loop
      vertex -0.261321 -2.4863 14
      vertex 0 -14 14
      vertex 0 -2.5 14
    endloop
  endfacet
  facet normal 0 0 1
    outer loop
      vertex -1.4634 -13.9233 14
      vertex -0.261321 -2.4863 14
      vertex -0.519779 -2.44537 14
    endloop
  endfacet
  facet normal 0 0 1
    outer loop
      vertex -2.91076 -13.6941 14
      vertex -0.519779 -2.44537 14
      vertex -0.772542 -2.37764 14
    endloop
  endfacet
  facet normal 0 0 1
    outer loop
      vertex -4.32624 -13.3148 14
      vertex -0.772542 -2.37764 14
      vertex -1.01684 -2.28386 14
    endloop
  endfacet
  facet normal 0 0 1
    outer loop
      vertex -5.69431 -12.7896 14
      vertex -1.01684 -2.28386 14
      vertex -1.25 -2.16506 14
    endloop
  endfacet
  facet normal 0 0 1
    outer loop
      vertex -0.261321 -2.4863 14
      vertex -1.4634 -13.9233 14
      vertex 0 -14 14
    endloop
  endfacet
  facet normal 0 0 1
    outer loop
      vertex -7 -12.1244 14
      vertex -1.25 -2.16506 14
      vertex -1.46946 -2.02254 14
    endloop
  endfacet
  facet normal 0 0 1
    outer loop
      vertex -8.22899 -11.3262 14
      vertex -1.46946 -2.02254 14
      vertex -1.67283 -1.85786 14
    endloop
  endfacet
  facet normal 0 0 1
    outer loop
      vertex -9.36783 -10.404 14
      vertex -1.67283 -1.85786 14
      vertex -1.85786 -1.67283 14
    endloop
  endfacet
  facet normal 0 0 1
    outer loop
      vertex -10.404 -9.36783 14
      vertex -1.85786 -1.67283 14
      vertex -2.02254 -1.46946 14
    endloop
  endfacet
  facet normal 0 0 1
    outer loop
      vertex -11.3262 -8.22899 14
      vertex -2.02254 -1.46946 14
      vertex -2.16506 -1.25 14
    endloop
  endfacet
  facet normal 0 0 1
    outer loop
      vertex -12.1244 -7 14
      vertex -2.16506 -1.25 14
      vertex -2.28386 -1.01684 14
    endloop
  endfacet
  facet normal 0 0 1
    outer loop
      vertex -12.7896 -5.69431 14
      vertex -2.28386 -1.01684 14
      vertex -2.37764 -0.772542 14
    endloop
  endfacet
  facet normal 0 0 1
    outer loop
      vertex -13.3148 -4.32624 14
      vertex -2.37764 -0.772542 14
      vertex -2.44537 -0.519779 14
    endloop
  endfacet
  facet normal 0 0 1
    outer loop
      vertex -13.6941 -2.91076 14
      vertex -2.44537 -0.519779 14
      vertex -2.4863 -0.261321 14
    endloop
  endfacet
  facet normal 0 0 1
    outer loop
      vertex -0.519779 -2.44537 14
      vertex -2.91076 -13.6941 14
      vertex -1.4634 -13.9233 14
    endloop
  endfacet
  facet normal 0 0 1
    outer loop
      vertex -13.9233 -1.4634 14
      vertex -2.4863 -0.261321 14
      vertex -2.5 0 14
    endloop
  endfacet
  facet normal -0 0 1
    outer loop
      vertex -11.3262 8.22899 14
      vertex -2.02254 1.46946 14
      vertex -10.404 9.36783 14
    endloop
  endfacet
  facet normal 0 0 1
    outer loop
      vertex -2.02254 1.46946 14
      vertex -11.3262 8.22899 14
      vertex -2.16506 1.25 14
    endloop
  endfacet
  facet normal 0 0 1
    outer loop
      vertex -0.772542 -2.37764 14
      vertex -4.32624 -13.3148 14
      vertex -2.91076 -13.6941 14
    endloop
  endfacet
  facet normal -0 0 1
    outer loop
      vertex -12.1244 7 14
      vertex -2.16506 1.25 14
      vertex -11.3262 8.22899 14
    endloop
  endfacet
  facet normal 0 0 1
    outer loop
      vertex -1.01684 -2.28386 14
      vertex -5.69431 -12.7896 14
      vertex -4.32624 -13.3148 14
    endloop
  endfacet
  facet normal 0 0 1
    outer loop
      vertex -2.16506 1.25 14
      vertex -12.1244 7 14
      vertex -2.28386 1.01684 14
    endloop
  endfacet
  facet normal 0 0 1
    outer loop
      vertex -1.25 -2.16506 14
      vertex -7 -12.1244 14
      vertex -5.69431 -12.7896 14
    endloop
  endfacet
  facet normal -0 0 1
    outer loop
      vertex -12.7896 5.69431 14
      vertex -2.28386 1.01684 14
      vertex -12.1244 7 14
    endloop
  endfacet
  facet normal 0 0 1
    outer loop
      vertex -1.46946 -2.02254 14
      vertex -8.22899 -11.3262 14
      vertex -7 -12.1244 14
    endloop
  endfacet
  facet normal 0 0 1
    outer loop
      vertex -2.28386 1.01684 14
      vertex -12.7896 5.69431 14
      vertex -2.37764 0.772542 14
    endloop
  endfacet
  facet normal 0 0 1
    outer loop
      vertex -1.67283 -1.85786 14
      vertex -9.36783 -10.404 14
      vertex -8.22899 -11.3262 14
    endloop
  endfacet
  facet normal -0 0 1
    outer loop
      vertex -13.3148 4.32624 14
      vertex -2.37764 0.772542 14
      vertex -12.7896 5.69431 14
    endloop
  endfacet
  facet normal 0 0 1
    outer loop
      vertex -1.85786 -1.67283 14
      vertex -10.404 -9.36783 14
      vertex -9.36783 -10.404 14
    endloop
  endfacet
  facet normal 0 0 1
    outer loop
      vertex -2.37764 0.772542 14
      vertex -13.3148 4.32624 14
      vertex -2.44537 0.519779 14
    endloop
  endfacet
  facet normal 0 0 1
    outer loop
      vertex -2.02254 -1.46946 14
      vertex -11.3262 -8.22899 14
      vertex -10.404 -9.36783 14
    endloop
  endfacet
  facet normal -0 0 1
    outer loop
      vertex -13.6941 2.91076 14
      vertex -2.44537 0.519779 14
      vertex -13.3148 4.32624 14
    endloop
  endfacet
  facet normal 0 0 1
    outer loop
      vertex -2.16506 -1.25 14
      vertex -12.1244 -7 14
      vertex -11.3262 -8.22899 14
    endloop
  endfacet
  facet normal 0 0 1
    outer loop
      vertex -2.44537 0.519779 14
      vertex -13.6941 2.91076 14
      vertex -2.4863 0.261321 14
    endloop
  endfacet
  facet normal 0 0 1
    outer loop
      vertex -2.28386 -1.01684 14
      vertex -12.7896 -5.69431 14
      vertex -12.1244 -7 14
    endloop
  endfacet
  facet normal -0 0 1
    outer loop
      vertex -13.9233 1.4634 14
      vertex -2.4863 0.261321 14
      vertex -13.6941 2.91076 14
    endloop
  endfacet
  facet normal 0 0 1
    outer loop
      vertex -2.37764 -0.772542 14
      vertex -13.3148 -4.32624 14
      vertex -12.7896 -5.69431 14
    endloop
  endfacet
  facet normal 0 0 1
    outer loop
      vertex -2.4863 0.261321 14
      vertex -13.9233 1.4634 14
      vertex -2.5 0 14
    endloop
  endfacet
  facet normal 0 0 1
    outer loop
      vertex -2.44537 -0.519779 14
      vertex -13.6941 -2.91076 14
      vertex -13.3148 -4.32624 14
    endloop
  endfacet
  facet normal 0 0 1
    outer loop
      vertex -14 0 14
      vertex -2.5 0 14
      vertex -13.9233 1.4634 14
    endloop
  endfacet
  facet normal 0 0 1
    outer loop
      vertex -2.4863 -0.261321 14
      vertex -13.9233 -1.4634 14
      vertex -13.6941 -2.91076 14
    endloop
  endfacet
  facet normal 0 0 1
    outer loop
      vertex -2.5 0 14
      vertex -14 0 14
      vertex -13.9233 -1.4634 14
    endloop
  endfacet
  facet normal 0.707107 0.707107 0
    outer loop
      vertex 10.404 9.36783 14
      vertex 9.36783 10.404 0
      vertex 9.36783 10.404 14
    endloop
  endfacet
  facet normal 0.707107 0.707107 0
    outer loop
      vertex 9.36783 10.404 0
      vertex 10.404 9.36783 14
      vertex 10.404 9.36783 0
    endloop
  endfacet
  facet normal 0.891029 0.453946 0
    outer loop
      vertex 12.7896 5.69431 14
      vertex 12.1244 7 0
      vertex 12.1244 7 14
    endloop
  endfacet
  facet normal 0.891029 0.453946 0
    outer loop
      vertex 12.1244 7 0
      vertex 12.7896 5.69431 14
      vertex 12.7896 5.69431 0
    endloop
  endfacet
  facet normal -0.838644 0.54468 0
    outer loop
      vertex -12.1244 7 0
      vertex -11.3262 8.22899 14
      vertex -11.3262 8.22899 0
    endloop
  endfacet
  facet normal -0.838644 0.54468 0
    outer loop
      vertex -11.3262 8.22899 14
      vertex -12.1244 7 0
      vertex -12.1244 7 14
    endloop
  endfacet
  facet normal -0.987692 0.156408 0
    outer loop
      vertex -13.9233 1.4634 0
      vertex -13.6941 2.91076 14
      vertex -13.6941 2.91076 0
    endloop
  endfacet
  facet normal -0.987692 0.156408 0
    outer loop
      vertex -13.6941 2.91076 14
      vertex -13.9233 1.4634 0
      vertex -13.9233 1.4634 14
    endloop
  endfacet
  facet normal -0.777151 0.629314 0
    outer loop
      vertex -11.3262 8.22899 0
      vertex -10.404 9.36783 14
      vertex -10.404 9.36783 0
    endloop
  endfacet
  facet normal -0.777151 0.629314 0
    outer loop
      vertex -10.404 9.36783 14
      vertex -11.3262 8.22899 0
      vertex -11.3262 8.22899 14
    endloop
  endfacet
  facet normal -0.629314 0.777151 0
    outer loop
      vertex -8.22899 11.3262 0
      vertex -9.36783 10.404 14
      vertex -8.22899 11.3262 14
    endloop
  endfacet
  facet normal -0.629314 0.777151 0
    outer loop
      vertex -9.36783 10.404 14
      vertex -8.22899 11.3262 0
      vertex -9.36783 10.404 0
    endloop
  endfacet
  facet normal -0.54468 0.838644 0
    outer loop
      vertex -7 12.1244 0
      vertex -8.22899 11.3262 14
      vertex -7 12.1244 14
    endloop
  endfacet
  facet normal -0.54468 0.838644 0
    outer loop
      vertex -8.22899 11.3262 14
      vertex -7 12.1244 0
      vertex -8.22899 11.3262 0
    endloop
  endfacet
  facet normal -0.891029 -0.453946 0
    outer loop
      vertex -12.1244 -7 0
      vertex -12.7896 -5.69431 14
      vertex -12.7896 -5.69431 0
    endloop
  endfacet
  facet normal -0.891029 -0.453946 0
    outer loop
      vertex -12.7896 -5.69431 14
      vertex -12.1244 -7 0
      vertex -12.1244 -7 14
    endloop
  endfacet
  facet normal 0.629314 -0.777151 0
    outer loop
      vertex 8.22899 -11.3262 0
      vertex 9.36783 -10.404 14
      vertex 8.22899 -11.3262 14
    endloop
  endfacet
  facet normal 0.629314 -0.777151 0
    outer loop
      vertex 9.36783 -10.404 14
      vertex 8.22899 -11.3262 0
      vertex 9.36783 -10.404 0
    endloop
  endfacet
  facet normal -0.358396 -0.93357 0
    outer loop
      vertex -5.69431 -12.7896 0
      vertex -4.32624 -13.3148 14
      vertex -5.69431 -12.7896 14
    endloop
  endfacet
  facet normal -0.358396 -0.93357 -0
    outer loop
      vertex -4.32624 -13.3148 14
      vertex -5.69431 -12.7896 0
      vertex -4.32624 -13.3148 0
    endloop
  endfacet
  facet normal -0.838644 -0.54468 0
    outer loop
      vertex -11.3262 -8.22899 0
      vertex -12.1244 -7 14
      vertex -12.1244 -7 0
    endloop
  endfacet
  facet normal -0.838644 -0.54468 0
    outer loop
      vertex -12.1244 -7 14
      vertex -11.3262 -8.22899 0
      vertex -11.3262 -8.22899 14
    endloop
  endfacet
  facet normal -0.987692 -0.156408 0
    outer loop
      vertex -13.6941 -2.91076 0
      vertex -13.9233 -1.4634 14
      vertex -13.9233 -1.4634 0
    endloop
  endfacet
  facet normal -0.987692 -0.156408 0
    outer loop
      vertex -13.9233 -1.4634 14
      vertex -13.6941 -2.91076 0
      vertex -13.6941 -2.91076 14
    endloop
  endfacet
  facet normal -0.93357 -0.358396 0
    outer loop
      vertex -12.7896 -5.69431 0
      vertex -13.3148 -4.32624 14
      vertex -13.3148 -4.32624 0
    endloop
  endfacet
  facet normal -0.93357 -0.358396 0
    outer loop
      vertex -13.3148 -4.32624 14
      vertex -12.7896 -5.69431 0
      vertex -12.7896 -5.69431 14
    endloop
  endfacet
  facet normal -0.777151 -0.629314 0
    outer loop
      vertex -10.404 -9.36783 0
      vertex -11.3262 -8.22899 14
      vertex -11.3262 -8.22899 0
    endloop
  endfacet
  facet normal -0.777151 -0.629314 0
    outer loop
      vertex -11.3262 -8.22899 14
      vertex -10.404 -9.36783 0
      vertex -10.404 -9.36783 14
    endloop
  endfacet
  facet normal 0.54468 -0.838644 0
    outer loop
      vertex 7 -12.1244 0
      vertex 8.22899 -11.3262 14
      vertex 7 -12.1244 14
    endloop
  endfacet
  facet normal 0.54468 -0.838644 0
    outer loop
      vertex 8.22899 -11.3262 14
      vertex 7 -12.1244 0
      vertex 8.22899 -11.3262 0
    endloop
  endfacet
  facet normal -0.0523403 -0.998629 0
    outer loop
      vertex -1.4634 -13.9233 0
      vertex 0 -14 14
      vertex -1.4634 -13.9233 14
    endloop
  endfacet
  facet normal -0.0523403 -0.998629 -0
    outer loop
      vertex 0 -14 14
      vertex -1.4634 -13.9233 0
      vertex 0 -14 0
    endloop
  endfacet
  facet normal -0.998629 0.0523403 0
    outer loop
      vertex -14 0 0
      vertex -13.9233 1.4634 14
      vertex -13.9233 1.4634 0
    endloop
  endfacet
  facet normal -0.998629 0.0523403 0
    outer loop
      vertex -13.9233 1.4634 14
      vertex -14 0 0
      vertex -14 0 14
    endloop
  endfacet
  facet normal -0.156408 -0.987692 0
    outer loop
      vertex -2.91076 -13.6941 0
      vertex -1.4634 -13.9233 14
      vertex -2.91076 -13.6941 14
    endloop
  endfacet
  facet normal -0.156408 -0.987692 -0
    outer loop
      vertex -1.4634 -13.9233 14
      vertex -2.91076 -13.6941 0
      vertex -1.4634 -13.9233 0
    endloop
  endfacet
  facet normal 0.707107 -0.707107 0
    outer loop
      vertex 9.36783 -10.404 14
      vertex 10.404 -9.36783 0
      vertex 10.404 -9.36783 14
    endloop
  endfacet
  facet normal 0.707107 -0.707107 0
    outer loop
      vertex 10.404 -9.36783 0
      vertex 9.36783 -10.404 14
      vertex 9.36783 -10.404 0
    endloop
  endfacet
  facet normal 0 0 -1
    outer loop
      vertex 13.9233 -1.4634 0
      vertex 13.9233 1.4634 0
      vertex 14 0 0
    endloop
  endfacet
  facet normal 0 0 -1
    outer loop
      vertex 13.6941 -2.91076 0
      vertex 13.9233 1.4634 0
      vertex 13.9233 -1.4634 0
    endloop
  endfacet
  facet normal 0 0 -1
    outer loop
      vertex 13.6941 -2.91076 0
      vertex 13.6941 2.91076 0
      vertex 13.9233 1.4634 0
    endloop
  endfacet
  facet normal 0 0 -1
    outer loop
      vertex 13.3148 -4.32624 0
      vertex 13.6941 2.91076 0
      vertex 13.6941 -2.91076 0
    endloop
  endfacet
  facet normal 0 0 -1
    outer loop
      vertex 13.3148 -4.32624 0
      vertex 13.3148 4.32624 0
      vertex 13.6941 2.91076 0
    endloop
  endfacet
  facet normal 0 0 -1
    outer loop
      vertex 12.7896 -5.69431 0
      vertex 13.3148 4.32624 0
      vertex 13.3148 -4.32624 0
    endloop
  endfacet
  facet normal 0 0 -1
    outer loop
      vertex 12.7896 -5.69431 0
      vertex 12.7896 5.69431 0
      vertex 13.3148 4.32624 0
    endloop
  endfacet
  facet normal 0 0 -1
    outer loop
      vertex 12.1244 -7 0
      vertex 12.7896 5.69431 0
      vertex 12.7896 -5.69431 0
    endloop
  endfacet
  facet normal 0 0 -1
    outer loop
      vertex 12.1244 -7 0
      vertex 12.1244 7 0
      vertex 12.7896 5.69431 0
    endloop
  endfacet
  facet normal 0 0 -1
    outer loop
      vertex 11.3262 -8.22899 0
      vertex 12.1244 7 0
      vertex 12.1244 -7 0
    endloop
  endfacet
  facet normal 0 0 -1
    outer loop
      vertex 11.3262 -8.22899 0
      vertex 11.3262 8.22899 0
      vertex 12.1244 7 0
    endloop
  endfacet
  facet normal 0 0 -1
    outer loop
      vertex 10.404 -9.36783 0
      vertex 11.3262 8.22899 0
      vertex 11.3262 -8.22899 0
    endloop
  endfacet
  facet normal 0 0 -1
    outer loop
      vertex 10.404 -9.36783 0
      vertex 10.404 9.36783 0
      vertex 11.3262 8.22899 0
    endloop
  endfacet
  facet normal 0 0 -1
    outer loop
      vertex 9.36783 -10.404 0
      vertex 10.404 9.36783 0
      vertex 10.404 -9.36783 0
    endloop
  endfacet
  facet normal 0 0 -1
    outer loop
      vertex 9.36783 -10.404 0
      vertex 9.36783 10.404 0
      vertex 10.404 9.36783 0
    endloop
  endfacet
  facet normal 0 0 -1
    outer loop
      vertex 8.22899 -11.3262 0
      vertex 9.36783 10.404 0
      vertex 9.36783 -10.404 0
    endloop
  endfacet
  facet normal 0 0 -1
    outer loop
      vertex 8.22899 -11.3262 0
      vertex 8.22899 11.3262 0
      vertex 9.36783 10.404 0
    endloop
  endfacet
  facet normal 0 0 -1
    outer loop
      vertex 7 -12.1244 0
      vertex 8.22899 11.3262 0
      vertex 8.22899 -11.3262 0
    endloop
  endfacet
  facet normal 0 0 -1
    outer loop
      vertex 7 -12.1244 0
      vertex 7 12.1244 0
      vertex 8.22899 11.3262 0
    endloop
  endfacet
  facet normal 0 0 -1
    outer loop
      vertex 5.69431 -12.7896 0
      vertex 7 12.1244 0
      vertex 7 -12.1244 0
    endloop
  endfacet
  facet normal 0 0 -1
    outer loop
      vertex 5.69431 -12.7896 0
      vertex 5.69431 12.7896 0
      vertex 7 12.1244 0
    endloop
  endfacet
  facet normal 0 0 -1
    outer loop
      vertex 4.32624 -13.3148 0
      vertex 5.69431 12.7896 0
      vertex 5.69431 -12.7896 0
    endloop
  endfacet
  facet normal 0 0 -1
    outer loop
      vertex 4.32624 -13.3148 0
      vertex 4.32624 13.3148 0
      vertex 5.69431 12.7896 0
    endloop
  endfacet
  facet normal 0 0 -1
    outer loop
      vertex 2.91076 -13.6941 0
      vertex 4.32624 13.3148 0
      vertex 4.32624 -13.3148 0
    endloop
  endfacet
  facet normal 0 0 -1
    outer loop
      vertex 2.91076 -13.6941 0
      vertex 2.91076 13.6941 0
      vertex 4.32624 13.3148 0
    endloop
  endfacet
  facet normal 0 0 -1
    outer loop
      vertex 1.4634 -13.9233 0
      vertex 2.91076 13.6941 0
      vertex 2.91076 -13.6941 0
    endloop
  endfacet
  facet normal 0 0 -1
    outer loop
      vertex 1.4634 -13.9233 0
      vertex 1.4634 13.9233 0
      vertex 2.91076 13.6941 0
    endloop
  endfacet
  facet normal 0 0 -1
    outer loop
      vertex 0 -14 0
      vertex 1.4634 13.9233 0
      vertex 1.4634 -13.9233 0
    endloop
  endfacet
  facet normal 0 0 -1
    outer loop
      vertex 0 -14 0
      vertex 0 14 0
      vertex 1.4634 13.9233 0
    endloop
  endfacet
  facet normal 0 0 -1
    outer loop
      vertex -1.4634 -13.9233 0
      vertex 0 14 0
      vertex 0 -14 0
    endloop
  endfacet
  facet normal 0 0 -1
    outer loop
      vertex -1.4634 -13.9233 0
      vertex -1.4634 13.9233 0
      vertex 0 14 0
    endloop
  endfacet
  facet normal 0 0 -1
    outer loop
      vertex -2.91076 -13.6941 0
      vertex -1.4634 13.9233 0
      vertex -1.4634 -13.9233 0
    endloop
  endfacet
  facet normal 0 0 -1
    outer loop
      vertex -2.91076 -13.6941 0
      vertex -2.91076 13.6941 0
      vertex -1.4634 13.9233 0
    endloop
  endfacet
  facet normal 0 0 -1
    outer loop
      vertex -4.32624 -13.3148 0
      vertex -2.91076 13.6941 0
      vertex -2.91076 -13.6941 0
    endloop
  endfacet
  facet normal 0 0 -1
    outer loop
      vertex -4.32624 -13.3148 0
      vertex -4.32624 13.3148 0
      vertex -2.91076 13.6941 0
    endloop
  endfacet
  facet normal 0 0 -1
    outer loop
      vertex -5.69431 -12.7896 0
      vertex -4.32624 13.3148 0
      vertex -4.32624 -13.3148 0
    endloop
  endfacet
  facet normal 0 0 -1
    outer loop
      vertex -5.69431 -12.7896 0
      vertex -5.69431 12.7896 0
      vertex -4.32624 13.3148 0
    endloop
  endfacet
  facet normal 0 0 -1
    outer loop
      vertex -7 -12.1244 0
      vertex -5.69431 12.7896 0
      vertex -5.69431 -12.7896 0
    endloop
  endfacet
  facet normal 0 0 -1
    outer loop
      vertex -7 -12.1244 0
      vertex -7 12.1244 0
      vertex -5.69431 12.7896 0
    endloop
  endfacet
  facet normal 0 0 -1
    outer loop
      vertex -8.22899 -11.3262 0
      vertex -7 12.1244 0
      vertex -7 -12.1244 0
    endloop
  endfacet
  facet normal 0 0 -1
    outer loop
      vertex -8.22899 -11.3262 0
      vertex -8.22899 11.3262 0
      vertex -7 12.1244 0
    endloop
  endfacet
  facet normal 0 0 -1
    outer loop
      vertex -9.36783 -10.404 0
      vertex -8.22899 11.3262 0
      vertex -8.22899 -11.3262 0
    endloop
  endfacet
  facet normal 0 0 -1
    outer loop
      vertex -9.36783 -10.404 0
      vertex -9.36783 10.404 0
      vertex -8.22899 11.3262 0
    endloop
  endfacet
  facet normal 0 0 -1
    outer loop
      vertex -10.404 -9.36783 0
      vertex -9.36783 10.404 0
      vertex -9.36783 -10.404 0
    endloop
  endfacet
  facet normal 0 0 -1
    outer loop
      vertex -10.404 -9.36783 0
      vertex -10.404 9.36783 0
      vertex -9.36783 10.404 0
    endloop
  endfacet
  facet normal 0 0 -1
    outer loop
      vertex -11.3262 -8.22899 0
      vertex -10.404 9.36783 0
      vertex -10.404 -9.36783 0
    endloop
  endfacet
  facet normal 0 0 -1
    outer loop
      vertex -11.3262 -8.22899 0
      vertex -11.3262 8.22899 0
      vertex -10.404 9.36783 0
    endloop
  endfacet
  facet normal 0 0 -1
    outer loop
      vertex -12.1244 -7 0
      vertex -11.3262 8.22899 0
      vertex -11.3262 -8.22899 0
    endloop
  endfacet
  facet normal 0 0 -1
    outer loop
      vertex -12.1244 -7 0
      vertex -12.1244 7 0
      vertex -11.3262 8.22899 0
    endloop
  endfacet
  facet normal 0 0 -1
    outer loop
      vertex -12.7896 -5.69431 0
      vertex -12.1244 7 0
      vertex -12.1244 -7 0
    endloop
  endfacet
  facet normal 0 0 -1
    outer loop
      vertex -12.7896 -5.69431 0
      vertex -12.7896 5.69431 0
      vertex -12.1244 7 0
    endloop
  endfacet
  facet normal 0 0 -1
    outer loop
      vertex -13.3148 -4.32624 0
      vertex -12.7896 5.69431 0
      vertex -12.7896 -5.69431 0
    endloop
  endfacet
  facet normal 0 0 -1
    outer loop
      vertex -13.3148 -4.32624 0
      vertex -13.3148 4.32624 0
      vertex -12.7896 5.69431 0
    endloop
  endfacet
  facet normal 0 0 -1
    outer loop
      vertex -13.6941 -2.91076 0
      vertex -13.3148 4.32624 0
      vertex -13.3148 -4.32624 0
    endloop
  endfacet
  facet normal 0 0 -1
    outer loop
      vertex -13.6941 -2.91076 0
      vertex -13.6941 2.91076 0
      vertex -13.3148 4.32624 0
    endloop
  endfacet
  facet normal 0 0 -1
    outer loop
      vertex -13.9233 -1.4634 0
      vertex -13.6941 2.91076 0
      vertex -13.6941 -2.91076 0
    endloop
  endfacet
  facet normal 0 0 -1
    outer loop
      vertex -13.9233 -1.4634 0
      vertex -13.9233 1.4634 0
      vertex -13.6941 2.91076 0
    endloop
  endfacet
  facet normal 0 -0 -1
    outer loop
      vertex -13.9233 1.4634 0
      vertex -13.9233 -1.4634 0
      vertex -14 0 0
    endloop
  endfacet
  facet normal 0.987692 0.156413 0
    outer loop
      vertex 2.4863 0.261321 18
      vertex 2.44537 0.519779 14
      vertex 2.44537 0.519779 18
    endloop
  endfacet
  facet normal 0.987692 0.156413 0
    outer loop
      vertex 2.44537 0.519779 14
      vertex 2.4863 0.261321 18
      vertex 2.4863 0.261321 14
    endloop
  endfacet
  facet normal 0.998629 0.052354 0
    outer loop
      vertex 2.5 0 18
      vertex 2.4863 0.261321 14
      vertex 2.4863 0.261321 18
    endloop
  endfacet
  facet normal 0.998629 0.052354 0
    outer loop
      vertex 2.4863 0.261321 14
      vertex 2.5 0 18
      vertex 2.5 0 14
    endloop
  endfacet
  facet normal 0.965924 0.258827 0
    outer loop
      vertex 2.44537 0.519779 18
      vertex 2.37764 0.772542 14
      vertex 2.37764 0.772542 18
    endloop
  endfacet
  facet normal 0.965924 0.258827 0
    outer loop
      vertex 2.37764 0.772542 14
      vertex 2.44537 0.519779 18
      vertex 2.44537 0.519779 14
    endloop
  endfacet
  facet normal -0.544642 0.838669 0
    outer loop
      vertex -1.25 2.16506 14
      vertex -1.46946 2.02254 18
      vertex -1.25 2.16506 18
    endloop
  endfacet
  facet normal -0.544642 0.838669 0
    outer loop
      vertex -1.46946 2.02254 18
      vertex -1.25 2.16506 14
      vertex -1.46946 2.02254 14
    endloop
  endfacet
  facet normal -0.838669 -0.544642 0
    outer loop
      vertex -2.02254 -1.46946 14
      vertex -2.16506 -1.25 18
      vertex -2.16506 -1.25 14
    endloop
  endfacet
  facet normal -0.838669 -0.544642 0
    outer loop
      vertex -2.16506 -1.25 18
      vertex -2.02254 -1.46946 14
      vertex -2.02254 -1.46946 18
    endloop
  endfacet
  facet normal -0.156413 -0.987692 0
    outer loop
      vertex -0.519779 -2.44537 14
      vertex -0.261321 -2.4863 18
      vertex -0.519779 -2.44537 18
    endloop
  endfacet
  facet normal -0.156413 -0.987692 -0
    outer loop
      vertex -0.261321 -2.4863 18
      vertex -0.519779 -2.44537 14
      vertex -0.261321 -2.4863 14
    endloop
  endfacet
  facet normal -0.453988 0.891008 0
    outer loop
      vertex -1.01684 2.28386 14
      vertex -1.25 2.16506 18
      vertex -1.01684 2.28386 18
    endloop
  endfacet
  facet normal -0.453988 0.891008 0
    outer loop
      vertex -1.25 2.16506 18
      vertex -1.01684 2.28386 14
      vertex -1.25 2.16506 14
    endloop
  endfacet
  facet normal -0.707107 -0.707107 0
    outer loop
      vertex -1.67283 -1.85786 14
      vertex -1.85786 -1.67283 18
      vertex -1.85786 -1.67283 14
    endloop
  endfacet
  facet normal -0.707107 -0.707107 0
    outer loop
      vertex -1.85786 -1.67283 18
      vertex -1.67283 -1.85786 14
      vertex -1.67283 -1.85786 18
    endloop
  endfacet
  facet normal 0.453988 0.891008 -0
    outer loop
      vertex 1.25 2.16506 14
      vertex 1.01684 2.28386 18
      vertex 1.25 2.16506 18
    endloop
  endfacet
  facet normal 0.453988 0.891008 0
    outer loop
      vertex 1.01684 2.28386 18
      vertex 1.25 2.16506 14
      vertex 1.01684 2.28386 14
    endloop
  endfacet
  facet normal -0.777157 0.629307 0
    outer loop
      vertex -2.02254 1.46946 14
      vertex -1.85786 1.67283 18
      vertex -1.85786 1.67283 14
    endloop
  endfacet
  facet normal -0.777157 0.629307 0
    outer loop
      vertex -1.85786 1.67283 18
      vertex -2.02254 1.46946 14
      vertex -2.02254 1.46946 18
    endloop
  endfacet
  facet normal 0.629307 0.777157 -0
    outer loop
      vertex 1.67283 1.85786 14
      vertex 1.46946 2.02254 18
      vertex 1.67283 1.85786 18
    endloop
  endfacet
  facet normal 0.629307 0.777157 0
    outer loop
      vertex 1.46946 2.02254 18
      vertex 1.67283 1.85786 14
      vertex 1.46946 2.02254 14
    endloop
  endfacet
  facet normal 0.358377 -0.933577 0
    outer loop
      vertex 0.772542 -2.37764 14
      vertex 1.01684 -2.28386 18
      vertex 0.772542 -2.37764 18
    endloop
  endfacet
  facet normal 0.358377 -0.933577 0
    outer loop
      vertex 1.01684 -2.28386 18
      vertex 0.772542 -2.37764 14
      vertex 1.01684 -2.28386 14
    endloop
  endfacet
  facet normal 0.707107 0.707107 0
    outer loop
      vertex 1.85786 1.67283 18
      vertex 1.67283 1.85786 14
      vertex 1.67283 1.85786 18
    endloop
  endfacet
  facet normal 0.707107 0.707107 0
    outer loop
      vertex 1.67283 1.85786 14
      vertex 1.85786 1.67283 18
      vertex 1.85786 1.67283 14
    endloop
  endfacet
  facet normal -0.629307 0.777157 0
    outer loop
      vertex -1.46946 2.02254 14
      vertex -1.67283 1.85786 18
      vertex -1.46946 2.02254 18
    endloop
  endfacet
  facet normal -0.629307 0.777157 0
    outer loop
      vertex -1.67283 1.85786 18
      vertex -1.46946 2.02254 14
      vertex -1.67283 1.85786 14
    endloop
  endfacet
  facet normal 0.629307 -0.777157 0
    outer loop
      vertex 1.46946 -2.02254 14
      vertex 1.67283 -1.85786 18
      vertex 1.46946 -2.02254 18
    endloop
  endfacet
  facet normal 0.629307 -0.777157 0
    outer loop
      vertex 1.67283 -1.85786 18
      vertex 1.46946 -2.02254 14
      vertex 1.67283 -1.85786 14
    endloop
  endfacet
  facet normal 0.544642 -0.838669 0
    outer loop
      vertex 1.25 -2.16506 14
      vertex 1.46946 -2.02254 18
      vertex 1.25 -2.16506 18
    endloop
  endfacet
  facet normal 0.544642 -0.838669 0
    outer loop
      vertex 1.46946 -2.02254 18
      vertex 1.25 -2.16506 14
      vertex 1.46946 -2.02254 14
    endloop
  endfacet
  facet normal -0.358377 0.933577 0
    outer loop
      vertex -0.772542 2.37764 14
      vertex -1.01684 2.28386 18
      vertex -0.772542 2.37764 18
    endloop
  endfacet
  facet normal -0.358377 0.933577 0
    outer loop
      vertex -1.01684 2.28386 18
      vertex -0.772542 2.37764 14
      vertex -1.01684 2.28386 14
    endloop
  endfacet
  facet normal -0.987692 -0.156413 0
    outer loop
      vertex -2.44537 -0.519779 14
      vertex -2.4863 -0.261321 18
      vertex -2.4863 -0.261321 14
    endloop
  endfacet
  facet normal -0.987692 -0.156413 0
    outer loop
      vertex -2.4863 -0.261321 18
      vertex -2.44537 -0.519779 14
      vertex -2.44537 -0.519779 18
    endloop
  endfacet
  facet normal -0.156413 0.987692 0
    outer loop
      vertex -0.261321 2.4863 14
      vertex -0.519779 2.44537 18
      vertex -0.261321 2.4863 18
    endloop
  endfacet
  facet normal -0.156413 0.987692 0
    outer loop
      vertex -0.519779 2.44537 18
      vertex -0.261321 2.4863 14
      vertex -0.519779 2.44537 14
    endloop
  endfacet
  facet normal 0.838669 0.544642 0
    outer loop
      vertex 2.16506 1.25 18
      vertex 2.02254 1.46946 14
      vertex 2.02254 1.46946 18
    endloop
  endfacet
  facet normal 0.838669 0.544642 0
    outer loop
      vertex 2.02254 1.46946 14
      vertex 2.16506 1.25 18
      vertex 2.16506 1.25 14
    endloop
  endfacet
  facet normal 0.258827 0.965924 -0
    outer loop
      vertex 0.772542 2.37764 14
      vertex 0.519779 2.44537 18
      vertex 0.772542 2.37764 18
    endloop
  endfacet
  facet normal 0.258827 0.965924 0
    outer loop
      vertex 0.519779 2.44537 18
      vertex 0.772542 2.37764 14
      vertex 0.519779 2.44537 14
    endloop
  endfacet
  facet normal 0.544642 0.838669 -0
    outer loop
      vertex 1.46946 2.02254 14
      vertex 1.25 2.16506 18
      vertex 1.46946 2.02254 18
    endloop
  endfacet
  facet normal 0.544642 0.838669 0
    outer loop
      vertex 1.25 2.16506 18
      vertex 1.46946 2.02254 14
      vertex 1.25 2.16506 14
    endloop
  endfacet
  facet normal 0.358377 0.933577 -0
    outer loop
      vertex 1.01684 2.28386 14
      vertex 0.772542 2.37764 18
      vertex 1.01684 2.28386 18
    endloop
  endfacet
  facet normal 0.358377 0.933577 0
    outer loop
      vertex 0.772542 2.37764 18
      vertex 1.01684 2.28386 14
      vertex 0.772542 2.37764 14
    endloop
  endfacet
  facet normal 0.965924 -0.258827 0
    outer loop
      vertex 2.37764 -0.772542 18
      vertex 2.44537 -0.519779 14
      vertex 2.44537 -0.519779 18
    endloop
  endfacet
  facet normal 0.965924 -0.258827 0
    outer loop
      vertex 2.44537 -0.519779 14
      vertex 2.37764 -0.772542 18
      vertex 2.37764 -0.772542 14
    endloop
  endfacet
  facet normal -0.258827 0.965924 0
    outer loop
      vertex -0.519779 2.44537 14
      vertex -0.772542 2.37764 18
      vertex -0.519779 2.44537 18
    endloop
  endfacet
  facet normal -0.258827 0.965924 0
    outer loop
      vertex -0.772542 2.37764 18
      vertex -0.519779 2.44537 14
      vertex -0.772542 2.37764 14
    endloop
  endfacet
  facet normal 0.453988 -0.891008 0
    outer loop
      vertex 1.01684 -2.28386 14
      vertex 1.25 -2.16506 18
      vertex 1.01684 -2.28386 18
    endloop
  endfacet
  facet normal 0.453988 -0.891008 0
    outer loop
      vertex 1.25 -2.16506 18
      vertex 1.01684 -2.28386 14
      vertex 1.25 -2.16506 14
    endloop
  endfacet
  facet normal 0.052354 -0.998629 0
    outer loop
      vertex 0 -2.5 14
      vertex 0.261321 -2.4863 18
      vertex 0 -2.5 18
    endloop
  endfacet
  facet normal 0.052354 -0.998629 0
    outer loop
      vertex 0.261321 -2.4863 18
      vertex 0 -2.5 14
      vertex 0.261321 -2.4863 14
    endloop
  endfacet
  facet normal 0.258827 -0.965924 0
    outer loop
      vertex 0.519779 -2.44537 14
      vertex 0.772542 -2.37764 18
      vertex 0.519779 -2.44537 18
    endloop
  endfacet
  facet normal 0.258827 -0.965924 0
    outer loop
      vertex 0.772542 -2.37764 18
      vertex 0.519779 -2.44537 14
      vertex 0.772542 -2.37764 14
    endloop
  endfacet
  facet normal 0.987692 -0.156413 0
    outer loop
      vertex 2.44537 -0.519779 18
      vertex 2.4863 -0.261321 14
      vertex 2.4863 -0.261321 18
    endloop
  endfacet
  facet normal 0.987692 -0.156413 0
    outer loop
      vertex 2.4863 -0.261321 14
      vertex 2.44537 -0.519779 18
      vertex 2.44537 -0.519779 14
    endloop
  endfacet
  facet normal -0.933577 -0.358377 0
    outer loop
      vertex -2.28386 -1.01684 14
      vertex -2.37764 -0.772542 18
      vertex -2.37764 -0.772542 14
    endloop
  endfacet
  facet normal -0.933577 -0.358377 0
    outer loop
      vertex -2.37764 -0.772542 18
      vertex -2.28386 -1.01684 14
      vertex -2.28386 -1.01684 18
    endloop
  endfacet
  facet normal -0.987692 0.156413 0
    outer loop
      vertex -2.4863 0.261321 14
      vertex -2.44537 0.519779 18
      vertex -2.44537 0.519779 14
    endloop
  endfacet
  facet normal -0.987692 0.156413 0
    outer loop
      vertex -2.44537 0.519779 18
      vertex -2.4863 0.261321 14
      vertex -2.4863 0.261321 18
    endloop
  endfacet
  facet normal 0.891008 -0.453988 0
    outer loop
      vertex 2.16506 -1.25 18
      vertex 2.28386 -1.01684 14
      vertex 2.28386 -1.01684 18
    endloop
  endfacet
  facet normal 0.891008 -0.453988 0
    outer loop
      vertex 2.28386 -1.01684 14
      vertex 2.16506 -1.25 18
      vertex 2.16506 -1.25 14
    endloop
  endfacet
  facet normal -0.965924 -0.258827 0
    outer loop
      vertex -2.37764 -0.772542 14
      vertex -2.44537 -0.519779 18
      vertex -2.44537 -0.519779 14
    endloop
  endfacet
  facet normal -0.965924 -0.258827 0
    outer loop
      vertex -2.44537 -0.519779 18
      vertex -2.37764 -0.772542 14
      vertex -2.37764 -0.772542 18
    endloop
  endfacet
  facet normal -0.453988 -0.891008 0
    outer loop
      vertex -1.25 -2.16506 14
      vertex -1.01684 -2.28386 18
      vertex -1.25 -2.16506 18
    endloop
  endfacet
  facet normal -0.453988 -0.891008 -0
    outer loop
      vertex -1.01684 -2.28386 18
      vertex -1.25 -2.16506 14
      vertex -1.01684 -2.28386 14
    endloop
  endfacet
  facet normal -0.891008 -0.453988 0
    outer loop
      vertex -2.16506 -1.25 14
      vertex -2.28386 -1.01684 18
      vertex -2.28386 -1.01684 14
    endloop
  endfacet
  facet normal -0.891008 -0.453988 0
    outer loop
      vertex -2.28386 -1.01684 18
      vertex -2.16506 -1.25 14
      vertex -2.16506 -1.25 18
    endloop
  endfacet
  facet normal 0.998629 -0.052354 0
    outer loop
      vertex 2.4863 -0.261321 18
      vertex 2.5 0 14
      vertex 2.5 0 18
    endloop
  endfacet
  facet normal 0.998629 -0.052354 0
    outer loop
      vertex 2.5 0 14
      vertex 2.4863 -0.261321 18
      vertex 2.4863 -0.261321 14
    endloop
  endfacet
  facet normal 0.777157 0.629307 0
    outer loop
      vertex 2.02254 1.46946 18
      vertex 1.85786 1.67283 14
      vertex 1.85786 1.67283 18
    endloop
  endfacet
  facet normal 0.777157 0.629307 0
    outer loop
      vertex 1.85786 1.67283 14
      vertex 2.02254 1.46946 18
      vertex 2.02254 1.46946 14
    endloop
  endfacet
  facet normal -0.258827 -0.965924 0
    outer loop
      vertex -0.772542 -2.37764 14
      vertex -0.519779 -2.44537 18
      vertex -0.772542 -2.37764 18
    endloop
  endfacet
  facet normal -0.258827 -0.965924 -0
    outer loop
      vertex -0.519779 -2.44537 18
      vertex -0.772542 -2.37764 14
      vertex -0.519779 -2.44537 14
    endloop
  endfacet
  facet normal 0.156413 -0.987692 0
    outer loop
      vertex 0.261321 -2.4863 14
      vertex 0.519779 -2.44537 18
      vertex 0.261321 -2.4863 18
    endloop
  endfacet
  facet normal 0.156413 -0.987692 0
    outer loop
      vertex 0.519779 -2.44537 18
      vertex 0.261321 -2.4863 14
      vertex 0.519779 -2.44537 14
    endloop
  endfacet
  facet normal 0.933577 0.358377 0
    outer loop
      vertex 2.37764 0.772542 18
      vertex 2.28386 1.01684 14
      vertex 2.28386 1.01684 18
    endloop
  endfacet
  facet normal 0.933577 0.358377 0
    outer loop
      vertex 2.28386 1.01684 14
      vertex 2.37764 0.772542 18
      vertex 2.37764 0.772542 14
    endloop
  endfacet
  facet normal 0.777157 -0.629307 0
    outer loop
      vertex 1.85786 -1.67283 18
      vertex 2.02254 -1.46946 14
      vertex 2.02254 -1.46946 18
    endloop
  endfacet
  facet normal 0.777157 -0.629307 0
    outer loop
      vertex 2.02254 -1.46946 14
      vertex 1.85786 -1.67283 18
      vertex 1.85786 -1.67283 14
    endloop
  endfacet
  facet normal 0.838669 -0.544642 0
    outer loop
      vertex 2.02254 -1.46946 18
      vertex 2.16506 -1.25 14
      vertex 2.16506 -1.25 18
    endloop
  endfacet
  facet normal 0.838669 -0.544642 0
    outer loop
      vertex 2.16506 -1.25 14
      vertex 2.02254 -1.46946 18
      vertex 2.02254 -1.46946 14
    endloop
  endfacet
  facet normal -0.838669 0.544642 0
    outer loop
      vertex -2.16506 1.25 14
      vertex -2.02254 1.46946 18
      vertex -2.02254 1.46946 14
    endloop
  endfacet
  facet normal -0.838669 0.544642 0
    outer loop
      vertex -2.02254 1.46946 18
      vertex -2.16506 1.25 14
      vertex -2.16506 1.25 18
    endloop
  endfacet
  facet normal 0.156413 0.987692 -0
    outer loop
      vertex 0.519779 2.44537 14
      vertex 0.261321 2.4863 18
      vertex 0.519779 2.44537 18
    endloop
  endfacet
  facet normal 0.156413 0.987692 0
    outer loop
      vertex 0.261321 2.4863 18
      vertex 0.519779 2.44537 14
      vertex 0.261321 2.4863 14
    endloop
  endfacet
  facet normal 0.707107 -0.707107 0
    outer loop
      vertex 1.67283 -1.85786 18
      vertex 1.85786 -1.67283 14
      vertex 1.85786 -1.67283 18
    endloop
  endfacet
  facet normal 0.707107 -0.707107 0
    outer loop
      vertex 1.85786 -1.67283 14
      vertex 1.67283 -1.85786 18
      vertex 1.67283 -1.85786 14
    endloop
  endfacet
  facet normal 0.891008 0.453988 0
    outer loop
      vertex 2.28386 1.01684 18
      vertex 2.16506 1.25 14
      vertex 2.16506 1.25 18
    endloop
  endfacet
  facet normal 0.891008 0.453988 0
    outer loop
      vertex 2.16506 1.25 14
      vertex 2.28386 1.01684 18
      vertex 2.28386 1.01684 14
    endloop
  endfacet
  facet normal -0.707107 0.707107 0
    outer loop
      vertex -1.85786 1.67283 14
      vertex -1.67283 1.85786 18
      vertex -1.67283 1.85786 14
    endloop
  endfacet
  facet normal -0.707107 0.707107 0
    outer loop
      vertex -1.67283 1.85786 18
      vertex -1.85786 1.67283 14
      vertex -1.85786 1.67283 18
    endloop
  endfacet
  facet normal -0.052354 -0.998629 0
    outer loop
      vertex -0.261321 -2.4863 14
      vertex 0 -2.5 18
      vertex -0.261321 -2.4863 18
    endloop
  endfacet
  facet normal -0.052354 -0.998629 -0
    outer loop
      vertex 0 -2.5 18
      vertex -0.261321 -2.4863 14
      vertex 0 -2.5 14
    endloop
  endfacet
  facet normal -0.052354 0.998629 0
    outer loop
      vertex 0 2.5 14
      vertex -0.261321 2.4863 18
      vertex 0 2.5 18
    endloop
  endfacet
  facet normal -0.052354 0.998629 0
    outer loop
      vertex -0.261321 2.4863 18
      vertex 0 2.5 14
      vertex -0.261321 2.4863 14
    endloop
  endfacet
  facet normal -0.998629 -0.052354 0
    outer loop
      vertex -2.4863 -0.261321 14
      vertex -2.5 0 18
      vertex -2.5 0 14
    endloop
  endfacet
  facet normal -0.998629 -0.052354 0
    outer loop
      vertex -2.5 0 18
      vertex -2.4863 -0.261321 14
      vertex -2.4863 -0.261321 18
    endloop
  endfacet
  facet normal -0.965924 0.258827 0
    outer loop
      vertex -2.44537 0.519779 14
      vertex -2.37764 0.772542 18
      vertex -2.37764 0.772542 14
    endloop
  endfacet
  facet normal -0.965924 0.258827 0
    outer loop
      vertex -2.37764 0.772542 18
      vertex -2.44537 0.519779 14
      vertex -2.44537 0.519779 18
    endloop
  endfacet
  facet normal -0.777157 -0.629307 0
    outer loop
      vertex -1.85786 -1.67283 14
      vertex -2.02254 -1.46946 18
      vertex -2.02254 -1.46946 14
    endloop
  endfacet
  facet normal -0.777157 -0.629307 0
    outer loop
      vertex -2.02254 -1.46946 18
      vertex -1.85786 -1.67283 14
      vertex -1.85786 -1.67283 18
    endloop
  endfacet
  facet normal -0.933577 0.358377 0
    outer loop
      vertex -2.37764 0.772542 14
      vertex -2.28386 1.01684 18
      vertex -2.28386 1.01684 14
    endloop
  endfacet
  facet normal -0.933577 0.358377 0
    outer loop
      vertex -2.28386 1.01684 18
      vertex -2.37764 0.772542 14
      vertex -2.37764 0.772542 18
    endloop
  endfacet
  facet normal 0.052354 0.998629 -0
    outer loop
      vertex 0.261321 2.4863 14
      vertex 0 2.5 18
      vertex 0.261321 2.4863 18
    endloop
  endfacet
  facet normal 0.052354 0.998629 0
    outer loop
      vertex 0 2.5 18
      vertex 0.261321 2.4863 14
      vertex 0 2.5 14
    endloop
  endfacet
  facet normal -0.629307 -0.777157 0
    outer loop
      vertex -1.67283 -1.85786 14
      vertex -1.46946 -2.02254 18
      vertex -1.67283 -1.85786 18
    endloop
  endfacet
  facet normal -0.629307 -0.777157 -0
    outer loop
      vertex -1.46946 -2.02254 18
      vertex -1.67283 -1.85786 14
      vertex -1.46946 -2.02254 14
    endloop
  endfacet
  facet normal 0.933577 -0.358377 0
    outer loop
      vertex 2.28386 -1.01684 18
      vertex 2.37764 -0.772542 14
      vertex 2.37764 -0.772542 18
    endloop
  endfacet
  facet normal 0.933577 -0.358377 0
    outer loop
      vertex 2.37764 -0.772542 14
      vertex 2.28386 -1.01684 18
      vertex 2.28386 -1.01684 14
    endloop
  endfacet
  facet normal -0.544642 -0.838669 0
    outer loop
      vertex -1.46946 -2.02254 14
      vertex -1.25 -2.16506 18
      vertex -1.46946 -2.02254 18
    endloop
  endfacet
  facet normal -0.544642 -0.838669 -0
    outer loop
      vertex -1.25 -2.16506 18
      vertex -1.46946 -2.02254 14
      vertex -1.25 -2.16506 14
    endloop
  endfacet
  facet normal -0.358377 -0.933577 0
    outer loop
      vertex -1.01684 -2.28386 14
      vertex -0.772542 -2.37764 18
      vertex -1.01684 -2.28386 18
    endloop
  endfacet
  facet normal -0.358377 -0.933577 -0
    outer loop
      vertex -0.772542 -2.37764 18
      vertex -1.01684 -2.28386 14
      vertex -0.772542 -2.37764 14
    endloop
  endfacet
  facet normal -0.998629 0.052354 0
    outer loop
      vertex -2.5 0 14
      vertex -2.4863 0.261321 18
      vertex -2.4863 0.261321 14
    endloop
  endfacet
  facet normal -0.998629 0.052354 0
    outer loop
      vertex -2.4863 0.261321 18
      vertex -2.5 0 14
      vertex -2.5 0 18
    endloop
  endfacet
  facet normal -0.891008 0.453988 0
    outer loop
      vertex -2.28386 1.01684 14
      vertex -2.16506 1.25 18
      vertex -2.16506 1.25 14
    endloop
  endfacet
  facet normal -0.891008 0.453988 0
    outer loop
      vertex -2.16506 1.25 18
      vertex -2.28386 1.01684 14
      vertex -2.28386 1.01684 18
    endloop
  endfacet
  facet normal 0 -1 0
    outer loop
      vertex -1.5 -2.59808 18
      vertex 1.5 -2.59808 21
      vertex -1.5 -2.59808 21
    endloop
  endfacet
  facet normal 0 -1 -0
    outer loop
      vertex 1.5 -2.59808 21
      vertex -1.5 -2.59808 18
      vertex 1.5 -2.59808 18
    endloop
  endfacet
  facet normal 0.866026 -0.499999 0
    outer loop
      vertex 1.5 -2.59808 21
      vertex 3 0 18
      vertex 3 0 21
    endloop
  endfacet
  facet normal 0.866026 -0.499999 0
    outer loop
      vertex 3 0 18
      vertex 1.5 -2.59808 21
      vertex 1.5 -2.59808 18
    endloop
  endfacet
  facet normal 0 1 -0
    outer loop
      vertex 1.5 2.59808 18
      vertex -1.5 2.59808 21
      vertex 1.5 2.59808 21
    endloop
  endfacet
  facet normal 0 1 0
    outer loop
      vertex -1.5 2.59808 21
      vertex 1.5 2.59808 18
      vertex -1.5 2.59808 18
    endloop
  endfacet
  facet normal 0.866026 0.499999 0
    outer loop
      vertex 3 0 21
      vertex 1.5 2.59808 18
      vertex 1.5 2.59808 21
    endloop
  endfacet
  facet normal 0.866026 0.499999 0
    outer loop
      vertex 1.5 2.59808 18
      vertex 3 0 21
      vertex 3 0 18
    endloop
  endfacet
  facet normal -0.866026 0.499999 0
    outer loop
      vertex -3 0 18
      vertex -1.5 2.59808 21
      vertex -1.5 2.59808 18
    endloop
  endfacet
  facet normal -0.866026 0.499999 0
    outer loop
      vertex -1.5 2.59808 21
      vertex -3 0 18
      vertex -3 0 21
    endloop
  endfacet
  facet normal -0.866026 -0.499999 0
    outer loop
      vertex -1.5 -2.59808 18
      vertex -3 0 21
      vertex -3 0 18
    endloop
  endfacet
  facet normal -0.866026 -0.499999 0
    outer loop
      vertex -3 0 21
      vertex -1.5 -2.59808 18
      vertex -1.5 -2.59808 21
    endloop
  endfacet
  facet normal 0 0 1
    outer loop
      vertex 1.5 2.59808 21
      vertex 1.5 -2.59808 21
      vertex 3 0 21
    endloop
  endfacet
  facet normal -0 0 1
    outer loop
      vertex -1.5 2.59808 21
      vertex 1.5 -2.59808 21
      vertex 1.5 2.59808 21
    endloop
  endfacet
  facet normal 0 0 1
    outer loop
      vertex -1.5 2.59808 21
      vertex -1.5 -2.59808 21
      vertex 1.5 -2.59808 21
    endloop
  endfacet
  facet normal 0 -0 1
    outer loop
      vertex -1.5 -2.59808 21
      vertex -1.5 2.59808 21
      vertex -3 0 21
    endloop
  endfacet
  facet normal -0 0 -1
    outer loop
      vertex 3 0 18
      vertex 2.4863 -0.261321 18
      vertex 2.5 0 18
    endloop
  endfacet
  facet normal 0 0 -1
    outer loop
      vertex 3 0 18
      vertex 2.44537 -0.519779 18
      vertex 2.4863 -0.261321 18
    endloop
  endfacet
  facet normal 0 0 -1
    outer loop
      vertex 3 0 18
      vertex 2.37764 -0.772542 18
      vertex 2.44537 -0.519779 18
    endloop
  endfacet
  facet normal 0 0 -1
    outer loop
      vertex 3 0 18
      vertex 2.28386 -1.01684 18
      vertex 2.37764 -0.772542 18
    endloop
  endfacet
  facet normal 0 0 -1
    outer loop
      vertex 3 0 18
      vertex 2.16506 -1.25 18
      vertex 2.28386 -1.01684 18
    endloop
  endfacet
  facet normal 0 0 -1
    outer loop
      vertex 1.5 -2.59808 18
      vertex 2.16506 -1.25 18
      vertex 3 0 18
    endloop
  endfacet
  facet normal 0 0 -1
    outer loop
      vertex 2.16506 -1.25 18
      vertex 1.5 -2.59808 18
      vertex 2.02254 -1.46946 18
    endloop
  endfacet
  facet normal 0 0 -1
    outer loop
      vertex 1.5 -2.59808 18
      vertex 1.85786 -1.67283 18
      vertex 2.02254 -1.46946 18
    endloop
  endfacet
  facet normal 0 0 -1
    outer loop
      vertex 1.5 -2.59808 18
      vertex 1.67283 -1.85786 18
      vertex 1.85786 -1.67283 18
    endloop
  endfacet
  facet normal 0 0 -1
    outer loop
      vertex 1.5 -2.59808 18
      vertex 1.46946 -2.02254 18
      vertex 1.67283 -1.85786 18
    endloop
  endfacet
  facet normal 0 0 -1
    outer loop
      vertex 1.5 -2.59808 18
      vertex 1.25 -2.16506 18
      vertex 1.46946 -2.02254 18
    endloop
  endfacet
  facet normal 0 0 -1
    outer loop
      vertex 1.5 -2.59808 18
      vertex 1.01684 -2.28386 18
      vertex 1.25 -2.16506 18
    endloop
  endfacet
  facet normal 0 0 -1
    outer loop
      vertex 1.5 -2.59808 18
      vertex 0.772542 -2.37764 18
      vertex 1.01684 -2.28386 18
    endloop
  endfacet
  facet normal 0 0 -1
    outer loop
      vertex 1.5 -2.59808 18
      vertex 0.519779 -2.44537 18
      vertex 0.772542 -2.37764 18
    endloop
  endfacet
  facet normal 0 0 -1
    outer loop
      vertex 1.5 -2.59808 18
      vertex 0.261321 -2.4863 18
      vertex 0.519779 -2.44537 18
    endloop
  endfacet
  facet normal 0 0 -1
    outer loop
      vertex 1.5 -2.59808 18
      vertex 0 -2.5 18
      vertex 0.261321 -2.4863 18
    endloop
  endfacet
  facet normal 0 0 -1
    outer loop
      vertex -1.5 -2.59808 18
      vertex 0 -2.5 18
      vertex 1.5 -2.59808 18
    endloop
  endfacet
  facet normal -0 0 -1
    outer loop
      vertex 0 -2.5 18
      vertex -1.5 -2.59808 18
      vertex -0.261321 -2.4863 18
    endloop
  endfacet
  facet normal 0 0 -1
    outer loop
      vertex -1.5 -2.59808 18
      vertex -0.519779 -2.44537 18
      vertex -0.261321 -2.4863 18
    endloop
  endfacet
  facet normal 0 0 -1
    outer loop
      vertex -1.5 -2.59808 18
      vertex -0.772542 -2.37764 18
      vertex -0.519779 -2.44537 18
    endloop
  endfacet
  facet normal 0 0 -1
    outer loop
      vertex -1.5 -2.59808 18
      vertex -1.01684 -2.28386 18
      vertex -0.772542 -2.37764 18
    endloop
  endfacet
  facet normal 0 0 -1
    outer loop
      vertex -1.5 -2.59808 18
      vertex -1.25 -2.16506 18
      vertex -1.01684 -2.28386 18
    endloop
  endfacet
  facet normal 0 0 -1
    outer loop
      vertex -1.5 -2.59808 18
      vertex -1.46946 -2.02254 18
      vertex -1.25 -2.16506 18
    endloop
  endfacet
  facet normal 0 0 -1
    outer loop
      vertex -1.5 -2.59808 18
      vertex -1.67283 -1.85786 18
      vertex -1.46946 -2.02254 18
    endloop
  endfacet
  facet normal 0 0 -1
    outer loop
      vertex -1.5 -2.59808 18
      vertex -1.85786 -1.67283 18
      vertex -1.67283 -1.85786 18
    endloop
  endfacet
  facet normal 0 0 -1
    outer loop
      vertex -1.5 -2.59808 18
      vertex -2.02254 -1.46946 18
      vertex -1.85786 -1.67283 18
    endloop
  endfacet
  facet normal 0 0 -1
    outer loop
      vertex -1.5 -2.59808 18
      vertex -2.16506 -1.25 18
      vertex -2.02254 -1.46946 18
    endloop
  endfacet
  facet normal 0 0 -1
    outer loop
      vertex -3 0 18
      vertex -2.16506 -1.25 18
      vertex -1.5 -2.59808 18
    endloop
  endfacet
  facet normal 0 0 -1
    outer loop
      vertex -2.4863 -0.261321 18
      vertex -3 0 18
      vertex -2.5 0 18
    endloop
  endfacet
  facet normal 0 0 -1
    outer loop
      vertex -2.44537 -0.519779 18
      vertex -3 0 18
      vertex -2.4863 -0.261321 18
    endloop
  endfacet
  facet normal 0 0 -1
    outer loop
      vertex -2.37764 -0.772542 18
      vertex -3 0 18
      vertex -2.44537 -0.519779 18
    endloop
  endfacet
  facet normal 0 0 -1
    outer loop
      vertex -2.28386 -1.01684 18
      vertex -3 0 18
      vertex -2.37764 -0.772542 18
    endloop
  endfacet
  facet normal 0 0 -1
    outer loop
      vertex -2.16506 -1.25 18
      vertex -3 0 18
      vertex -2.28386 -1.01684 18
    endloop
  endfacet
  facet normal 0 0 -1
    outer loop
      vertex 2.4863 0.261321 18
      vertex 3 0 18
      vertex 2.5 0 18
    endloop
  endfacet
  facet normal 0 0 -1
    outer loop
      vertex 2.44537 0.519779 18
      vertex 3 0 18
      vertex 2.4863 0.261321 18
    endloop
  endfacet
  facet normal 0 0 -1
    outer loop
      vertex 2.37764 0.772542 18
      vertex 3 0 18
      vertex 2.44537 0.519779 18
    endloop
  endfacet
  facet normal 0 0 -1
    outer loop
      vertex 2.28386 1.01684 18
      vertex 3 0 18
      vertex 2.37764 0.772542 18
    endloop
  endfacet
  facet normal 0 0 -1
    outer loop
      vertex 2.16506 1.25 18
      vertex 3 0 18
      vertex 2.28386 1.01684 18
    endloop
  endfacet
  facet normal 0 0 -1
    outer loop
      vertex 1.5 2.59808 18
      vertex 2.16506 1.25 18
      vertex 2.02254 1.46946 18
    endloop
  endfacet
  facet normal 0 0 -1
    outer loop
      vertex 2.16506 1.25 18
      vertex 1.5 2.59808 18
      vertex 3 0 18
    endloop
  endfacet
  facet normal 0 0 -1
    outer loop
      vertex 1.85786 1.67283 18
      vertex 1.5 2.59808 18
      vertex 2.02254 1.46946 18
    endloop
  endfacet
  facet normal 0 0 -1
    outer loop
      vertex 1.67283 1.85786 18
      vertex 1.5 2.59808 18
      vertex 1.85786 1.67283 18
    endloop
  endfacet
  facet normal 0 0 -1
    outer loop
      vertex 1.46946 2.02254 18
      vertex 1.5 2.59808 18
      vertex 1.67283 1.85786 18
    endloop
  endfacet
  facet normal 0 0 -1
    outer loop
      vertex 1.25 2.16506 18
      vertex 1.5 2.59808 18
      vertex 1.46946 2.02254 18
    endloop
  endfacet
  facet normal 0 0 -1
    outer loop
      vertex 1.01684 2.28386 18
      vertex 1.5 2.59808 18
      vertex 1.25 2.16506 18
    endloop
  endfacet
  facet normal 0 0 -1
    outer loop
      vertex 0.772542 2.37764 18
      vertex 1.5 2.59808 18
      vertex 1.01684 2.28386 18
    endloop
  endfacet
  facet normal 0 0 -1
    outer loop
      vertex 0.519779 2.44537 18
      vertex 1.5 2.59808 18
      vertex 0.772542 2.37764 18
    endloop
  endfacet
  facet normal 0 0 -1
    outer loop
      vertex 0.261321 2.4863 18
      vertex 1.5 2.59808 18
      vertex 0.519779 2.44537 18
    endloop
  endfacet
  facet normal 0 0 -1
    outer loop
      vertex 0 2.5 18
      vertex 1.5 2.59808 18
      vertex 0.261321 2.4863 18
    endloop
  endfacet
  facet normal 0 0 -1
    outer loop
      vertex -1.5 2.59808 18
      vertex 0 2.5 18
      vertex -0.261321 2.4863 18
    endloop
  endfacet
  facet normal 0 0 -1
    outer loop
      vertex 0 2.5 18
      vertex -1.5 2.59808 18
      vertex 1.5 2.59808 18
    endloop
  endfacet
  facet normal 0 0 -1
    outer loop
      vertex -0.519779 2.44537 18
      vertex -1.5 2.59808 18
      vertex -0.261321 2.4863 18
    endloop
  endfacet
  facet normal 0 0 -1
    outer loop
      vertex -0.772542 2.37764 18
      vertex -1.5 2.59808 18
      vertex -0.519779 2.44537 18
    endloop
  endfacet
  facet normal 0 0 -1
    outer loop
      vertex -1.01684 2.28386 18
      vertex -1.5 2.59808 18
      vertex -0.772542 2.37764 18
    endloop
  endfacet
  facet normal 0 0 -1
    outer loop
      vertex -1.25 2.16506 18
      vertex -1.5 2.59808 18
      vertex -1.01684 2.28386 18
    endloop
  endfacet
  facet normal 0 0 -1
    outer loop
      vertex -1.46946 2.02254 18
      vertex -1.5 2.59808 18
      vertex -1.25 2.16506 18
    endloop
  endfacet
  facet normal 0 0 -1
    outer loop
      vertex -1.67283 1.85786 18
      vertex -1.5 2.59808 18
      vertex -1.46946 2.02254 18
    endloop
  endfacet
  facet normal 0 0 -1
    outer loop
      vertex -1.85786 1.67283 18
      vertex -1.5 2.59808 18
      vertex -1.67283 1.85786 18
    endloop
  endfacet
  facet normal 0 0 -1
    outer loop
      vertex -2.02254 1.46946 18
      vertex -1.5 2.59808 18
      vertex -1.85786 1.67283 18
    endloop
  endfacet
  facet normal 0 0 -1
    outer loop
      vertex -2.16506 1.25 18
      vertex -1.5 2.59808 18
      vertex -2.02254 1.46946 18
    endloop
  endfacet
  facet normal 0 0 -1
    outer loop
      vertex -3 0 18
      vertex -2.16506 1.25 18
      vertex -2.28386 1.01684 18
    endloop
  endfacet
  facet normal -0 0 -1
    outer loop
      vertex -2.16506 1.25 18
      vertex -3 0 18
      vertex -1.5 2.59808 18
    endloop
  endfacet
  facet normal -0 0 -1
    outer loop
      vertex -2.37764 0.772542 18
      vertex -3 0 18
      vertex -2.28386 1.01684 18
    endloop
  endfacet
  facet normal -0 0 -1
    outer loop
      vertex -2.44537 0.519779 18
      vertex -3 0 18
      vertex -2.37764 0.772542 18
    endloop
  endfacet
  facet normal -0 0 -1
    outer loop
      vertex -2.4863 0.261321 18
      vertex -3 0 18
      vertex -2.44537 0.519779 18
    endloop
  endfacet
  facet normal 0 0 -1
    outer loop
      vertex -3 0 18
      vertex -2.4863 0.261321 18
      vertex -2.5 0 18
    endloop
  endfacet
endsolid OpenSCAD_Model
